<?xml version="1.0"?>
<svg xmlns="http://www.w3.org/2000/svg" xmlns:xlink="http://www.w3.org/1999/xlink" xmlns:svgjs="http://svgjs.com/svgjs" version="1.1" width="512" height="512" x="0" y="0" viewBox="0 0 498.88 498.88" style="enable-background:new 0 0 512 512" xml:space="preserve" class=""><g>
<path xmlns="http://www.w3.org/2000/svg" style="" d="M84.696,321.983c6.44,0,12.632,1.992,18.216,5.184c2.688,1.536,5.888,2.816,9.088,2.816  s6.4-1.28,9.088-2.816c5.592-3.192,11.784-5.184,18.216-5.184h2.088c19.112,0,34.608,15.496,34.608,34.6v6.072  c0,15.264-4.144,30.24-12,43.32l0,0c-7.856,13.088-12,28.064-12,43.32v3.824c0,7.112-5.752,12.864-12.856,12.864l0,0  c-6.4,0-11.816-4.704-12.72-11.032l-5.296-37.048c-0.648-4.544-4.536-7.92-9.128-7.92l0,0c-4.592,0-8.48,3.376-9.128,7.92  l-5.296,37.048c-0.904,6.328-6.328,11.032-12.72,11.032l0,0c-7.104,0-12.856-5.752-12.856-12.856v-3.824  c0-15.264-4.144-30.24-12-43.32l0,0c-7.856-13.088-12-28.064-12-43.32v-6.072c0-19.112,15.496-34.608,34.6-34.608H84.696z" fill="#ffffff" data-original="#ececec" class=""/>
<path xmlns="http://www.w3.org/2000/svg" style="" d="M112,385.983c-25.128,0-47.736-7.696-63.776-19.984c0.56,14.096,4.496,27.856,11.776,39.984  c7.856,13.088,12,28.064,12,43.32v3.824c0,7.104,5.752,12.856,12.856,12.856c6.392,0,11.816-4.704,12.72-11.032l5.288-37.048  c0.656-4.544,4.544-7.92,9.136-7.92s8.48,3.376,9.128,7.92l5.288,37.048c0.912,6.328,6.336,11.032,12.728,11.032  c7.104,0,12.856-5.752,12.856-12.856v-3.824c0-15.264,4.144-30.24,12-43.32c7.272-12.128,11.208-25.888,11.776-39.984  C159.736,378.287,137.128,385.983,112,385.983z" fill="#b6c1ce" data-original="#b6c1ce" class=""/>
<rect xmlns="http://www.w3.org/2000/svg" x="248" y="313.983" style="" width="96" height="104" fill="#ffffff" data-original="#f9e0a6" class=""/>
<path xmlns="http://www.w3.org/2000/svg" style="" d="M458.168,206.591c1.664-9.48,9.192-18.656,9.192-28.608s-7.536-19.128-9.192-28.6  c-1.704-9.744,2.216-20.928-1.096-30.024c-3.368-9.248-13.592-15.288-18.456-23.704c-4.912-8.488-5.064-20.352-11.336-27.824  c-6.288-7.488-17.952-9.688-25.44-15.976c-7.464-6.272-11.64-17.384-20.136-22.304c-8.408-4.864-20.12-2.96-29.368-6.328  c-9.088-3.312-16.816-12.32-26.568-14.032c-9.48-1.648-19.816,4.152-29.768,4.152s-20.28-5.808-29.76-4.144  c-9.744,1.704-17.472,10.72-26.56,14.032c-9.248,3.368-20.952,1.456-29.368,6.328c-8.488,4.912-12.664,16.024-20.136,22.296  c-7.488,6.288-19.152,8.488-25.44,15.976c-6.272,7.464-6.424,19.328-11.336,27.824c-4.864,8.408-15.088,14.448-18.456,23.704  c-3.312,9.088,0.608,20.28-1.096,30.024c-1.672,9.472-9.208,18.648-9.208,28.6s7.536,19.128,9.192,28.6  c1.704,9.744-2.216,20.928,1.096,30.024c3.368,9.248,13.592,15.288,18.456,23.704c4.912,8.488,5.064,20.352,11.336,27.824  c6.288,7.488,17.952,9.688,25.44,15.976c7.464,6.272,11.64,17.384,20.136,22.296c8.408,4.864,20.12,2.96,29.368,6.328H352.32  c9.248-3.368,20.952-1.464,29.368-6.328c8.488-4.912,12.664-16.024,20.136-22.296c7.488-6.288,19.152-8.488,25.44-15.976  c6.272-7.464,6.424-19.328,11.336-27.824c4.864-8.408,15.088-14.456,18.456-23.704C460.376,227.527,456.456,216.335,458.168,206.591  z" fill="#ffffff" data-original="#92e0c0" class=""/>
<path xmlns="http://www.w3.org/2000/svg" style="" d="M458.168,206.591c1.664-9.48,9.192-18.656,9.192-28.608s-7.536-19.128-9.192-28.6  c-1.704-9.744,2.216-20.928-1.096-30.024c-3.368-9.248-13.592-15.288-18.456-23.704c-4.912-8.488-5.064-20.352-11.336-27.824  c-6.288-7.488-17.952-9.688-25.44-15.976c-7.464-6.272-11.64-17.384-20.136-22.304c-8.408-4.864-20.12-2.96-29.368-6.328  c-9.088-3.312-16.816-12.32-26.568-14.032c-4.984-0.872-10.216,0.32-15.496,1.648c7.456,3.224,13.992,9.68,21.416,12.384  c9.256,3.368,20.96,1.464,29.368,6.328c8.488,4.912,12.664,16.024,20.136,22.304c7.488,6.288,19.152,8.488,25.44,15.976  c6.272,7.464,6.424,19.328,11.336,27.824c4.864,8.408,15.088,14.448,18.456,23.704c3.312,9.088-0.608,20.28,1.096,30.024  c1.656,9.48,9.192,18.648,9.192,28.6c0,9.952-7.536,19.128-9.192,28.608c-1.704,9.744,2.208,20.936-1.096,30.024  c-3.368,9.248-13.592,15.296-18.456,23.704c-4.912,8.488-5.064,20.352-11.336,27.824c-6.288,7.488-17.952,9.688-25.44,15.976  c-7.464,6.272-11.64,17.384-20.136,22.296c-8.408,4.864-20.112,2.96-29.368,6.328h20.64c9.248-3.368,20.952-1.464,29.368-6.328  c8.488-4.912,12.664-16.024,20.136-22.296c7.488-6.288,19.152-8.488,25.44-15.976c6.272-7.464,6.424-19.328,11.336-27.824  c4.864-8.408,15.088-14.456,18.456-23.704C460.376,227.527,456.456,216.335,458.168,206.591z" fill="#bfbfbf" data-original="#48c397" class=""/>
<path xmlns="http://www.w3.org/2000/svg" style="" d="M296,65.983c-74.992,0-136,61.008-136,136v16h272v-16C432,126.991,370.992,65.983,296,65.983z" fill="#ffffff" data-original="#ececec" class=""/>
<g xmlns="http://www.w3.org/2000/svg">
	<path style="" d="M104,489.983h8c-2.656,0-5.264-0.2-7.872-0.4L104,489.983z" fill="#ffffff" data-original="#92e0c0" class=""/>
	<path style="" d="M464.872,415.975c-10.328-33.048-38.56-57.328-72.784-62.592l-48.088-7.4l-48,48l-48-48   l-37.864,5.824c3.736,10.72,5.864,22.184,5.864,34.176c0,57.44-46.56,104-104,104h184h192L464.872,415.975z" fill="#ffffff" data-original="#92e0c0" class=""/>
</g>
<g xmlns="http://www.w3.org/2000/svg">
	<path style="" d="M240,385.983c0-13.192-2-25.92-5.712-37.888l-24.152,3.712c3.736,10.72,5.864,22.184,5.864,34.176   c0,57.44-46.56,104-104,104h74.424C218.824,466.759,240,428.879,240,385.983z" fill="#bfbfbf" data-original="#48c397" class=""/>
	<path style="" d="M464.872,415.975c-10.328-33.048-38.56-57.328-72.784-62.592l-48.088-7.4l-22.664,22.664   l41.056,15.792c28.672,11.032,50.384,35.048,58.472,64.688L432,489.983h56L464.872,415.975z" fill="#bfbfbf" data-original="#48c397" class=""/>
</g>
<g xmlns="http://www.w3.org/2000/svg">
	<path style="" d="M192,249.983L192,249.983c-17.672,0-32-14.328-32-32l0,0c0-17.672,14.328-32,32-32l0,0h208l0,0   c17.672,0,32,14.328,32,32l0,0c0,17.672-14.328,32-32,32l0,0H192z" fill="#ffffff" data-original="#f9e0a6" class=""/>
	<path style="" d="M400,201.983c0-57.44-46.56-104-104-104s-104,46.56-104,104v24h208V201.983z" fill="#ffffff" data-original="#f9e0a6" class=""/>
</g>
<path xmlns="http://www.w3.org/2000/svg" style="" d="M296,337.983c57.44,0,104-46.56,104-104v-8H192v8C192,291.423,238.56,337.983,296,337.983z" fill="#ffffff" data-original="#ececec" class=""/>
<path xmlns="http://www.w3.org/2000/svg" style="" d="M296,97.983c-5.456,0-10.768,0.544-16,1.352c49.824,7.72,88,50.664,88,102.648v24h32v-24  C400,144.543,353.44,97.983,296,97.983z" fill="#ffffff" data-original="#eabd8c" class=""/>
<path xmlns="http://www.w3.org/2000/svg" style="" d="M368,225.983v8c0,51.984-38.176,94.928-88,102.648c5.232,0.808,10.544,1.352,16,1.352  c57.44,0,104-46.56,104-104v-8H368z" fill="#b6c1ce" data-original="#b6c1ce" class=""/>
<path xmlns="http://www.w3.org/2000/svg" d="M472.504,413.591c-11.152-35.688-42.24-62.424-79.192-68.112l-36.568-5.624c2.816-0.768,6-1.2,9.464-1.552  c6.216-0.64,13.272-1.36,19.488-4.96c6.272-3.632,10.44-9.408,14.112-14.512c2.408-3.336,4.68-6.496,7.168-8.592  c2.496-2.104,6.016-3.8,9.736-5.6c5.64-2.728,12.04-5.824,16.68-11.344c4.632-5.512,6.576-12.344,8.288-18.368  c1.136-3.984,2.2-7.744,3.848-10.592c1.616-2.792,4.32-5.56,7.176-8.496c4.392-4.512,9.376-9.624,11.864-16.472  c2.448-6.72,1.928-13.776,1.48-20c-0.304-4.16-0.584-8.088-0.008-11.384c0.544-3.112,2.12-6.616,3.784-10.32  c2.592-5.768,5.528-12.312,5.528-19.672s-2.936-13.904-5.528-19.672c-1.664-3.704-3.232-7.2-3.784-10.312  c-0.576-3.296-0.288-7.224,0.016-11.384c0.456-6.224,0.968-13.28-1.48-20c-2.496-6.848-7.48-11.96-11.872-16.472  c-2.856-2.936-5.56-5.704-7.168-8.496c-1.648-2.848-2.72-6.608-3.848-10.584c-1.712-6.024-3.656-12.856-8.288-18.376  c-4.64-5.528-11.04-8.624-16.68-11.352c-3.72-1.8-7.232-3.496-9.736-5.6c-2.496-2.096-4.768-5.248-7.176-8.6  c-3.664-5.096-7.824-10.872-14.096-14.504c-6.216-3.6-13.272-4.32-19.496-4.96c-4.136-0.424-8.032-0.824-11.152-1.96  c-3-1.096-6.176-3.264-9.552-5.552c-5.224-3.552-11.152-7.576-18.368-8.84c-7-1.224-13.824,0.496-19.832,2.016  c-4.08,1.024-7.92,2-11.312,2s-7.232-0.976-11.312-2c-6.016-1.52-12.816-3.264-19.832-2.024c-7.216,1.264-13.144,5.288-18.36,8.84  c-3.376,2.296-6.56,4.464-9.56,5.552c-3.12,1.136-7.016,1.528-11.152,1.96c-6.216,0.64-13.272,1.36-19.488,4.96  c-6.272,3.632-10.44,9.408-14.112,14.512c-2.408,3.336-4.68,6.496-7.168,8.592c-2.496,2.104-6.016,3.8-9.736,5.6  c-5.64,2.728-12.04,5.824-16.68,11.344c-4.632,5.512-6.576,12.344-8.288,18.368c-1.136,3.984-2.2,7.744-3.848,10.592  c-1.616,2.792-4.32,5.56-7.176,8.496c-4.392,4.512-9.376,9.624-11.864,16.472c-2.448,6.72-1.928,13.776-1.48,20  c0.304,4.16,0.584,8.088,0.008,11.384c-0.544,3.112-2.12,6.616-3.784,10.32c-2.592,5.768-5.528,12.304-5.528,19.672  c0,7.36,2.936,13.904,5.528,19.672c1.664,3.704,3.232,7.2,3.784,10.312c0.576,3.296,0.288,7.224-0.016,11.384  c-0.456,6.224-0.968,13.28,1.48,20c2.496,6.848,7.48,11.96,11.872,16.472c2.856,2.936,5.56,5.704,7.168,8.496  c1.648,2.848,2.72,6.608,3.848,10.584c1.712,6.024,3.656,12.856,8.288,18.376c4.64,5.528,11.04,8.624,16.68,11.352  c3.72,1.8,7.232,3.496,9.736,5.6c2.496,2.096,4.768,5.248,7.176,8.6c3.664,5.096,7.824,10.872,14.096,14.504  c1.872,1.08,3.832,1.848,5.808,2.488l-14.248,7.152c6.744,13.408,10.16,27.88,10.16,43.008c0,52.936-43.064,96-96,96  s-96-43.064-96-96c0-30.632,14.816-59.68,39.624-77.712l-9.408-12.944C17.28,316.359,0,350.255,0,385.983  c0,59.056,45.976,107.464,104,111.592v0.408h394.88L472.504,413.591z M184.336,240.615C174.872,237.399,168,228.519,168,217.983  s6.872-19.416,16.336-22.632c-0.128,2.208-0.336,4.392-0.336,6.632v32C184,236.223,184.208,238.407,184.336,240.615z M296,105.983  c52.936,0,96,43.064,96,96v16H200v-16C200,149.047,243.064,105.983,296,105.983z M407.664,195.351  c9.464,3.216,16.336,12.096,16.336,22.632s-6.872,19.416-16.336,22.632c0.128-2.208,0.336-4.392,0.336-6.632v-32  C408,199.743,407.792,197.559,407.664,195.351z M405.488,178.535c-1.912-8.928-4.96-17.408-8.864-25.408l13.872-8.016  c6.168,12.36,10.384,25.832,12.264,40.056C417.728,181.663,411.832,179.423,405.488,178.535z M388.712,139.223  c-8-11.776-18.168-21.952-29.944-29.944l8-13.856c14.176,9.44,26.36,21.624,35.8,35.8L388.712,139.223z M344.856,101.359  c-12.512-6.104-26.288-9.928-40.856-10.968v-16c17.472,1.088,33.976,5.664,48.872,13.088L344.856,101.359z M288,90.391  c-14.568,1.04-28.344,4.872-40.856,10.968l-8.008-13.88c14.896-7.432,31.4-12,48.872-13.088v16H288z M225.232,95.415l8,13.856  c-11.776,8-21.952,18.168-29.944,29.944l-13.856-8C198.88,117.047,211.064,104.863,225.232,95.415z M181.496,145.111l13.872,8.016  c-3.904,8-6.952,16.488-8.864,25.408c-6.344,0.88-12.24,3.128-17.28,6.632C171.112,170.943,175.328,157.479,181.496,145.111z   M392,233.983c0,52.936-43.064,96-96,96s-96-43.064-96-96H392z M256,338.471c12.44,4.784,25.896,7.512,40,7.512  s27.56-2.728,40-7.512v4.2l-40,40l-40-40V338.471z M205.176,309.479c-2.872-3.992-5.848-8.12-9.864-11.496  c-4.032-3.384-8.624-5.608-13.064-7.752c-4.6-2.232-8.952-4.336-11.4-7.248c-2.432-2.896-3.752-7.536-5.152-12.456  c-1.352-4.744-2.752-9.648-5.392-14.224c-2.608-4.512-6.152-8.144-9.568-11.656c-3.584-3.68-6.976-7.16-8.296-10.776  c-1.264-3.496-0.92-8.288-0.544-13.36c0.36-4.944,0.736-10.064-0.176-15.312c-0.896-5.08-2.96-9.672-4.952-14.104  c-2.12-4.72-4.128-9.176-4.128-13.112s2.008-8.392,4.128-13.12c1.992-4.44,4.056-9.024,4.952-14.112  c0.92-5.248,0.544-10.368,0.176-15.32c-0.368-5.064-0.72-9.856,0.552-13.352c1.32-3.624,4.712-7.104,8.296-10.784  c3.424-3.504,6.952-7.136,9.56-11.648c2.648-4.568,4.048-9.48,5.4-14.232c1.4-4.92,2.72-9.56,5.152-12.456  c2.448-2.904,6.8-5.008,11.4-7.24c4.44-2.128,9.032-4.352,13.064-7.736c4.016-3.376,6.984-7.504,9.856-11.496  c3-4.168,5.832-8.096,9.144-10.008c3.24-1.88,8.032-2.368,13.112-2.888c4.912-0.504,10-1.032,14.976-2.84  c4.872-1.776,9.056-4.616,13.088-7.36c4.264-2.896,8.296-5.64,12.136-6.312c3.576-0.624,8.24,0.536,13.152,1.776  c4.824,1.224,9.832,2.488,15.216,2.488c5.376,0,10.384-1.264,15.224-2.488c4.904-1.232,9.536-2.4,13.16-1.776  c3.832,0.672,7.864,3.416,12.136,6.32c4.04,2.744,8.208,5.576,13.088,7.352c4.976,1.816,10.064,2.336,14.976,2.84  c5.08,0.52,9.864,1.016,13.12,2.896c3.304,1.912,6.136,5.84,9.128,10.008c2.864,3.984,5.84,8.12,9.856,11.488  c4.032,3.384,8.624,5.608,13.064,7.752c4.6,2.232,8.952,4.336,11.4,7.248c2.432,2.896,3.752,7.536,5.152,12.456  c1.352,4.744,2.752,9.648,5.392,14.224c2.608,4.512,6.152,8.144,9.568,11.656c3.584,3.68,6.976,7.16,8.296,10.776  c1.264,3.496,0.92,8.288,0.544,13.36c-0.36,4.944-0.736,10.064,0.176,15.312c0.896,5.08,2.96,9.672,4.952,14.104  c2.12,4.72,4.128,9.176,4.128,13.112s-2.008,8.392-4.128,13.12c-1.992,4.44-4.056,9.024-4.952,14.112  c-0.92,5.248-0.544,10.368-0.176,15.32c0.368,5.064,0.72,9.856-0.552,13.352c-1.32,3.624-4.712,7.104-8.296,10.784  c-3.424,3.504-6.952,7.136-9.56,11.648c-2.648,4.568-4.048,9.48-5.4,14.232c-1.4,4.92-2.72,9.56-5.152,12.456  c-2.448,2.904-6.8,5.008-11.4,7.24c-4.44,2.144-9.032,4.368-13.064,7.752c-4.016,3.376-6.984,7.504-9.856,11.496  c-3,4.168-5.832,8.096-9.144,10.008c-3.24,1.88-8.032,2.368-13.112,2.896c-0.016,0-0.04,0.008-0.056,0.008  c20.496-15.92,35.36-38.712,40.976-64.96c19.44-2.728,34.512-19.288,34.512-39.464v-16c0-79.4-64.6-144-144-144s-144,64.6-144,144  v16c0,20.176,15.072,36.736,34.512,39.448c5.616,26.248,20.48,49.04,40.968,64.96c-0.024,0-0.04-0.008-0.064-0.008  c-5.08-0.52-9.864-1.016-13.12-2.896C211,317.567,208.168,313.639,205.176,309.479z M225.784,338.295  c3.472,0.36,6.664,0.792,9.48,1.56l-20.024,3.08c-0.992-2.376-1.896-4.768-3.064-7.096  C216.736,337.303,221.456,337.847,225.784,338.295z M224,385.983c0-9.472-1.24-18.704-3.52-27.672l24.736-3.808L296,405.295  l50.792-50.792l44.088,6.784c30.968,4.768,57.016,27.168,66.368,57.072l19.872,63.624h-62.056l-7.128-56.992l-15.872,1.984  l6.872,55.008H169.392C202.04,462.391,224,426.751,224,385.983z" fill="#000000" data-original="#000000" style="" class=""/>
<circle xmlns="http://www.w3.org/2000/svg" cx="248" cy="185.983" r="8" fill="#000000" data-original="#000000" style="" class=""/>
<circle xmlns="http://www.w3.org/2000/svg" cx="344" cy="185.983" r="8" fill="#000000" data-original="#000000" style="" class=""/>
<rect xmlns="http://www.w3.org/2000/svg" x="312" y="441.983" width="64" height="16" fill="#000000" data-original="#000000" style="" class=""/>
<polygon xmlns="http://www.w3.org/2000/svg" points="288,305.983 304,305.983 304,289.983 320,289.983 320,273.983 304,273.983 304,257.983 288,257.983 288,273.983   272,273.983 272,289.983 288,289.983 " fill="#000000" data-original="#000000" style="" class=""/>
<path xmlns="http://www.w3.org/2000/svg" d="M82.6,313.983c-23.488,0-42.6,19.112-42.6,42.608v6.072c0,16.704,4.544,33.112,13.144,47.44  C60.24,421.943,64,435.495,64,449.311v3.824c0,11.496,9.352,20.848,20.848,20.848c10.312,0,19.184-7.696,20.648-17.904l5.288-37.048  c0.168-1.192,2.248-1.192,2.424,0l5.288,37.048c1.464,10.208,10.336,17.904,20.656,17.904c11.496,0,20.848-9.352,20.848-20.848  v-3.824c0-13.808,3.76-27.368,10.856-39.208c8.6-14.328,13.144-30.736,13.144-47.448v-6.072c0-23.488-19.112-42.6-42.6-42.6h-2.096  c-7.472,0-14.928,2.096-22.184,6.24c-3.984,2.272-6.24,2.28-10.24,0c-7.256-4.144-14.712-6.24-22.184-6.24H82.6z M125.048,334.119  c4.816-2.744,9.6-4.136,14.256-4.136h2.096c14.672,0,26.6,11.936,26.6,26.608v6.072c0,13.808-3.76,27.368-10.856,39.208  c-8.6,14.32-13.144,30.728-13.144,47.44v3.824c0,2.672-2.176,4.848-4.848,4.848c-2.4,0-4.472-1.792-4.808-4.168l-5.288-37.048  c-1.208-8.432-8.544-14.784-17.056-14.784s-15.848,6.352-17.056,14.792l-5.288,37.04c-0.336,2.376-2.408,4.168-4.808,4.168  c-2.672,0-4.848-2.176-4.848-4.848v-3.824c0-16.704-4.544-33.112-13.144-47.44C59.76,390.023,56,376.471,56,362.655v-6.072  c0-14.664,11.928-26.6,26.6-26.6h2.096c4.656,0,9.448,1.392,14.248,4.128C107.928,339.255,116.08,339.247,125.048,334.119z" fill="#000000" data-original="#000000" style="" class=""/>
<path xmlns="http://www.w3.org/2000/svg" d="M112,369.983c9.784,0,19.504-2.712,28.888-8.056l-7.92-13.904c-13.888,7.912-28.04,7.912-41.976-0.016l-7.904,13.904  C92.496,367.271,102.216,369.983,112,369.983z" fill="#000000" data-original="#000000" style="" class=""/>
<path xmlns="http://www.w3.org/2000/svg" d="M96.432,291.239l-2.56-15.792c-4.248,0.688-8.496,1.64-12.624,2.816l4.392,15.384  C89.168,292.639,92.8,291.831,96.432,291.239z" fill="#000000" data-original="#000000" style="" class=""/>
<path xmlns="http://www.w3.org/2000/svg" d="M75.48,297.175l-6.096-14.8c-3.776,1.552-7.488,3.328-11.024,5.264l7.688,14.04C69.072,300.015,72.24,298.503,75.48,297.175  z" fill="#000000" data-original="#000000" style="" class=""/>
<g xmlns="http://www.w3.org/2000/svg">
</g>
<g xmlns="http://www.w3.org/2000/svg">
</g>
<g xmlns="http://www.w3.org/2000/svg">
</g>
<g xmlns="http://www.w3.org/2000/svg">
</g>
<g xmlns="http://www.w3.org/2000/svg">
</g>
<g xmlns="http://www.w3.org/2000/svg">
</g>
<g xmlns="http://www.w3.org/2000/svg">
</g>
<g xmlns="http://www.w3.org/2000/svg">
</g>
<g xmlns="http://www.w3.org/2000/svg">
</g>
<g xmlns="http://www.w3.org/2000/svg">
</g>
<g xmlns="http://www.w3.org/2000/svg">
</g>
<g xmlns="http://www.w3.org/2000/svg">
</g>
<g xmlns="http://www.w3.org/2000/svg">
</g>
<g xmlns="http://www.w3.org/2000/svg">
</g>
<g xmlns="http://www.w3.org/2000/svg">
</g>
</g></svg>
